#!OML:ASF H:\Terrain\Patient Classification 1\Walking\steve\steve.ASF
:FULLY-SPECIFIED
:DEGREES
77
root 7.77347 16.0418 -13.9562 4.53845 -7.42063 3.27762
lowerback 1.90999 2.30718 -3.94228
upperback -3.01154 2.87938 -1.20965
thorax -4.31481 1.53683 0.789944
lowerneck -10.9765 -1.06623 -2.89537
upperneck 15.7842 -1.89167 5.49903
head 6.69477 -0.623859 2.07677
rclavicle -8.58812e-015 -1.07841e-014
rhumerus -44.6267 -9.20194 -84.0514
rradius 36.6351
rwrist -0.711804
rhand 178.753 -68.409
rfingers 7.12502
rthumb -155.605 -39.942
lclavicle -8.58812e-015 -1.07841e-014
lhumerus -39.85 25.3372 70.2255
lradius 13.199
lwrist -21.5719
lhand -21.5133 -13.8586
lfingers 7.12502
lthumb 4.87877 16.0652
rfemur -28.7442 1.97896 18.5168
rtibia 74.5831
rfoot -1.57953 1.7606
rtoes -3.07624
lfemur -16.2709 -0.514272 -27.7771
ltibia 28.3465
lfoot -14.9271 -2.66462
ltoes -1.80144
78
root 7.77236 16.0484 -13.7308 4.30424 -7.18137 3.41512
lowerback 2.00461 2.24651 -4.14033
upperback -2.92311 2.79308 -1.07633
thorax -4.28973 1.50109 1.04124
lowerneck -10.853 -1.04616 -3.08306
upperneck 15.8599 -1.83474 5.49353
head 6.69599 -0.609139 2.11212
rclavicle 3.26682e-014 6.78353e-015
rhumerus -45.405 -10.439 -82.859
rradius 34.4978
rwrist 0.501388
rhand 178.149 -67.9794
rfingers 7.12502
rthumb -156.183 -39.4357
lclavicle 3.26682e-014 6.78353e-015
lhumerus -37.3832 22.5016 73.5444
lradius 14.2755
lwrist -17.7819
lhand -20.5144 -13.218
lfingers 7.12502
lthumb 5.84321 16.6814
rfemur -30.1251 1.60489 18.7694
rtibia 73.8559
rfoot -3.72441 1.98092
rtoes -6.24442
lfemur -14.8203 -0.420351 -28.0482
ltibia 27.7936
lfoot -15.6904 -2.8465
ltoes -3.47378
79
root 7.77394 16.0473 -13.51 4.22235 -6.92854 3.54421
lowerback 2.11195 2.17571 -4.25404
upperback -2.90365 2.69179 -0.994841
thorax -4.33507 1.45615 1.19098
lowerneck -10.5675 -0.964326 -3.36787
upperneck 15.8448 -1.7243 5.7652
head 6.63993 -0.554637 2.25719
rclavicle 3.47539e-014 -1.6201e-014
rhumerus -46.1778 -11.7785 -81.5387
rradius 32.3457
rwrist 1.72059
rhand 177.535 -67.9336
rfingers 7.12502
rthumb -156.772 -39.3144
lclavicle 3.47539e-014 -1.6201e-014
lhumerus -35.1486 18.8152 76.8202
lradius 15.8916
lwrist -13.2546
lhand -18.9457 -11.5318
lfingers 7.12502
lthumb 7.35752 18.3203
rfemur -31.561 1.22988 19.0005
rtibia 72.9365
rfoot -5.62322 2.26919
rtoes -9.51921
lfemur -13.7345 0.0681474 -28.3559
ltibia 27.3791
lfoot -16.4187 -2.79331
ltoes -7.18867
80
root 7.77768 16.0275 -13.2811 4.05888 -6.58389 3.89826
lowerback 2.21033 1.99726 -4.53133
upperback -2.90409 2.43501 -1.02103
thorax -4.38941 1.33766 1.33109
lowerneck -10.0069 -0.907996 -3.43188
upperneck 15.8293 -1.64379 5.73909
head 6.53271 -0.530468 2.2662
rclavicle 1.69064e-014 2.1593e-014
rhumerus -47.1199 -12.7655 -80.2968
rradius 30.251
rwrist 2.89473
rhand 177.053 -68.2436
rfingers 7.12502
rthumb -157.235 -39.5667
lclavicle 1.69064e-014 2.1593e-014
lhumerus -33.3677 15.4518 79.1808
lradius 17.5882
lwrist -9.16293
lhand -18.9393 -11.4178
lfingers 7.12502
lthumb 7.36378 18.4341
rfemur -32.704 0.899151 18.9199
rtibia 71.782
rfoot -7.34793 2.25049
rtoes -8.72356
lfemur -12.675 0.740254 -28.8832
ltibia 27.1354
lfoot -16.6858 -3.8616
ltoes -6.02182
81
root 7.77891 16.0044 -13.0546 4.02904 -6.17532 4.04304
lowerback 2.31448 1.78138 -4.68579
upperback -2.96191 2.13228 -1.0093
thorax -4.49815 1.19514 1.44434
lowerneck -9.78268 -0.840791 -3.22
upperneck 16.0182 -1.56324 5.52079
head 6.54669 -0.498557 2.16916
rclavicle -2.24937e-014 3.57812e-015
rhumerus -48.2148 -14.0142 -78.8451
rradius 28.4641
rwrist 4.82639
rhand 176.768 -68.0772
rfingers 7.12502
rthumb -157.509 -39.3669
lclavicle -2.24937e-014 3.57812e-015
lhumerus -31.844 13.2996 80.4945
lradius 19.0082
lwrist -6.62112
lhand -20.1479 -13.6827
lfingers 7.12502
lthumb 6.197 16.2067
rfemur -33.9344 0.59261 19.121
rtibia 70.3061
rfoot -9.24011 1.85989
rtoes -7.86443
lfemur -11.6701 1.2749 -29.1074
ltibia 27.0025
lfoot -16.4215 -5.39142
ltoes -0.833269
82
root 7.77891 16.0031 -12.829 4.25184 -5.80487 3.79429
lowerback 2.29118 1.69665 -4.52921
upperback -3.08138 2.03102 -0.830685
thorax -4.60368 1.14681 1.54669
lowerneck -10.0289 -0.88017 -3.00478
upperneck 16.3861 -1.59645 5.1364
head 6.70503 -0.52664 2.0098
rclavicle -8.25966e-015 -1.04362e-015
rhumerus -49.4381 -16.3046 -76.3683
rradius 26.7554
rwrist 7.13396
rhand 175.251 -67.5553
rfingers 7.12502
rthumb -158.965 -38.6761
lclavicle -8.25966e-015 -1.04362e-015
lhumerus -30.4519 11.0901 81.8421
lradius 20.6592
lwrist -4.20391
lhand -20.719 -14.9991
lfingers 7.12502
lthumb 5.64563 14.9057
rfemur -35.2388 0.318287 19.7592
rtibia 68.4781
rfoot -11.0594 1.82284
rtoes -16.3044
lfemur -10.7881 1.82861 -28.9241
ltibia 26.8116
lfoot -16.3653 -5.6425
ltoes -2.06565
83
root 7.77631 16.0085 -12.5968 4.39264 -5.48496 3.51125
lowerback 2.25214 1.69699 -4.37027
upperback -3.18458 2.04874 -0.569471
thorax -4.69385 1.15854 1.72604
lowerneck -10.0889 -1.00971 -3.06963
upperneck 16.5826 -1.70881 4.79826
head 6.78149 -0.610693 1.90306
rclavicle 3.78514e-014 1.88845e-015
rhumerus -50.8073 -18.608 -73.3128
rradius 24.7988
rwrist 9.87434
rhand 173.584 -67.2182
rfingers 7.12502
rthumb -160.568 -38.1692
lclavicle 3.78514e-014 1.88845e-015
lhumerus -29.2617 8.57579 83.3776
lradius 22.5918
lwrist -1.00527
lhand -21.3304 -14.8478
lfingers 7.12502
lthumb 5.05533 15.0719
rfemur -36.3168 0.128462 20.4333
rtibia 66.3899
rfoot -12.4579 0.714021
rtoes -21.5909
lfemur -9.74026 2.53858 -28.6703
ltibia 26.4626
lfoot -16.5068 -5.88802
ltoes -4.52924
